<svg width="100%" viewBox="0 0 680 520" role="img" xmlns="http://www.w3.org/2000/svg">
  <defs>
    <mask id="imagine-text-gaps-fd4amp" maskUnits="userSpaceOnUse"><rect x="0" y="0" width="680" height="520" fill="white"/><rect x="261.0500183105469" y="110.20000457763672" width="157.90000915527344" height="116" fill="black" rx="2"/><rect x="197.65000915527344" y="234.40000915527344" width="284.70001220703125" height="20.80000114440918" fill="black" rx="2"/><rect x="279.8000183105469" y="274.6000061035156" width="119.5999984741211" height="31.200000762939453" fill="black" rx="2"/><rect x="273.6437683105469" y="346.8000183105469" width="132.7125015258789" height="17.600000381469727" fill="black" rx="2"/></mask>
  </defs>

  <ellipse cx="340" cy="258" rx="195" ry="195" fill="none" stroke="#C9A227" stroke-width="1.5" opacity="0.35"/>
  <ellipse cx="340" cy="258" rx="185" ry="185" fill="none" stroke="#C9A227" stroke-width="0.5" opacity="0.2"/>

  <path d="M340 68 L510 130 L510 290 Q510 390 340 452 Q170 390 170 290 L170 130 Z" fill="#0A1628" stroke="#C9A227" stroke-width="3"/>
  <path d="M340 88 L492 143 L492 286 Q492 376 340 432 Q188 376 188 286 L188 143 Z" fill="none" stroke="#C9A227" stroke-width="1" opacity="0.5" mask="url(#imagine-text-gaps-fd4amp)"/>
  <path d="M340 94 L486 147 L486 284 Q486 370 340 424 Q194 370 194 284 L194 147 Z" fill="#0D1E35"/>

  <line x1="205" y1="215" x2="475" y2="215" stroke="#C9A227" stroke-width="1" opacity="0.6" mask="url(#imagine-text-gaps-fd4amp)"/>
  <line x1="205" y1="220" x2="475" y2="220" stroke="#C9A227" stroke-width="0.4" opacity="0.3" mask="url(#imagine-text-gaps-fd4amp)"/>

  <path d="M220 148 L460 148 L460 175 L340 182 L220 175 Z" fill="#C9A227" opacity="0.12"/>

  <polygon points="234,160 237,168 245,168 239,173 241,181 234,176 227,181 229,173 223,168 231,168" fill="#C9A227" opacity="0.8" transform="scale(0.7) translate(96,74)"/>
  <polygon points="446,160 449,168 457,168 451,173 453,181 446,176 439,181 441,173 435,168 443,168" fill="#C9A227" opacity="0.8" transform="scale(0.7) translate(-164,74)"/>

  <text x="340" y="205" font-family="'Bebas Neue', 'Impact', sans-serif" font-size="92" font-weight="400" fill="#C9A227" text-anchor="middle" letter-spacing="6">GPL</text>
  <text x="340" y="250" font-family="'Rajdhani', 'Arial Narrow', sans-serif" font-size="15" font-weight="700" fill="#E8D88A" text-anchor="middle" letter-spacing="5">GEEK PREMIER LEAGUE</text>

  <line x1="200" y1="260" x2="298" y2="260" stroke="#C9A227" stroke-width="0.8" opacity="0.7"/>
  <line x1="382" y1="260" x2="480" y2="260" stroke="#C9A227" stroke-width="0.8" opacity="0.7"/>
  <circle cx="340" cy="260" r="3" fill="#C9A227" opacity="0.9"/>

  <rect x="254" y="275" width="172" height="36" rx="4" fill="#C9A227"/>
  <text x="340" y="299" font-family="'Bebas Neue', 'Impact', sans-serif" font-size="22" font-weight="400" fill="#0A1628" text-anchor="middle" letter-spacing="5">AUCTION</text>

  <line x1="230" y1="328" x2="310" y2="328" stroke="#C9A227" stroke-width="0.8" opacity="0.5"/>
  <line x1="370" y1="328" x2="450" y2="328" stroke="#C9A227" stroke-width="0.8" opacity="0.5"/>
  <circle cx="230" cy="328" r="2.5" fill="none" stroke="#C9A227" stroke-width="1" opacity="0.7"/>
  <circle cx="450" cy="328" r="2.5" fill="none" stroke="#C9A227" stroke-width="1" opacity="0.7"/>
  <line x1="315" y1="324" x2="315" y2="332" stroke="#C9A227" stroke-width="0.8" opacity="0.5"/>
  <line x1="365" y1="324" x2="365" y2="332" stroke="#C9A227" stroke-width="0.8" opacity="0.5"/>
  <line x1="315" y1="328" x2="365" y2="328" stroke="#C9A227" stroke-width="0.8" opacity="0.4"/>

  <text x="340" y="360" font-family="'Rajdhani', 'Arial Narrow', sans-serif" font-size="12" font-weight="700" fill="#C9A227" text-anchor="middle" letter-spacing="4" opacity="0.7">SEASON 2026</text>

  <polygon points="340,430 330,415 350,415" fill="#C9A227" opacity="0.6"/>

  <circle cx="170" cy="258" r="3" fill="#C9A227" opacity="0.4"/>
  <circle cx="510" cy="258" r="3" fill="#C9A227" opacity="0.4"/>
  <circle cx="258" cy="123" r="2" fill="#C9A227" opacity="0.5"/>
  <circle cx="340" cy="105" r="2.5" fill="#C9A227" opacity="0.7"/>
  <circle cx="422" cy="123" r="2" fill="#C9A227" opacity="0.5"/>
</svg>
